<svg xmlns="http://www.w3.org/2000/svg" viewBox="0 0 512 512"><title>TV</title><g id="TV"><g id="TV-2" data-name="TV"><rect x="164.1506" y="229.1243" width="147.4925" height="119.1562"/><rect x="328.8971" y="249.9179" width="13.7347" height="13.439"/><path d="M255.9976,61.6773c-107.3251,0-194.32,87.0048-194.32,194.3251,0,107.3155,87,194.32,194.32,194.32,107.3155,0,194.3251-87.0048,194.3251-194.32C450.3227,148.6821,363.3131,61.6773,255.9976,61.6773ZM368.3762,354.0088a16.4774,16.4774,0,0,1-16.4727,16.4765H158.4174a16.4781,16.4781,0,0,1-16.4764-16.4765V223.3922a16.479,16.479,0,0,1,16.4764-16.4775H247.419l-62.3241-62.3155,9.5059-9.5059,61.7347,61.7347,61.7338-61.7347,9.5069,9.5059L265.26,206.9147h86.6438a16.4741,16.4741,0,0,1,16.4679,16.4775V354.0088Z"/><rect x="328.8971" y="228.6366" width="13.7347" height="13.439"/></g></g></svg>